<svg viewBox="0 0 512 512" xmlns="http://www.w3.org/2000/svg" xmlns:xlink="http://www.w3.org/1999/xlink">
    <svg fill="none" viewBox="0 0 20 20" id="check" xmlns="http://www.w3.org/2000/svg">
        <path d="M9.965 11.98l8.202-9.002 1.083.987-9.21 10.108L5.02 9.3l1.01-1.06 3.935 3.741zm8.716-5.24l-1.142 1.258c.165.637.254 1.304.254 1.992 0 4.362-3.549 7.91-7.91 7.91-4.362 0-7.91-3.548-7.91-7.91 0-4.361 3.548-7.91 7.91-7.91a7.88 7.88 0 015.266 2.013l.987-1.087A9.307 9.307 0 009.883.616a9.313 9.313 0 00-6.63 2.745 9.313 9.313 0 00-2.745 6.63c0 2.503.975 4.858 2.745 6.628a9.313 9.313 0 006.63 2.746 9.313 9.313 0 006.629-2.746 9.314 9.314 0 002.746-6.629 9.375 9.375 0 00-.577-3.25z"
              fill="#219653"/>
    </svg>
    <svg viewBox="0 0 512 512" id="like" xmlns="http://www.w3.org/2000/svg">
        <path d="M471.67 79.174C446.515 53.701 411.829 39.672 374 39.672c-66.136 0-100.331 34.03-117.371 62.577-.212.354-.422.709-.629 1.063a118.18 118.18 0 00-.629-1.063C238.331 73.702 204.136 39.672 138 39.672c-37.829 0-72.515 14.029-97.67 39.503C13.946 105.894 0 142.469 0 184.946c0 90.198 80.181 150.001 150.922 202.764 35.249 26.29 68.543 51.123 89.498 77.158 3.796 4.717 9.525 7.46 15.58 7.46s11.784-2.743 15.581-7.458c10.778-13.392 25.76-27.631 47.152-44.812 8.611-6.917 9.985-19.506 3.068-28.118-6.916-8.61-19.505-9.986-28.117-3.069-15.092 12.122-27.436 23.085-37.675 33.503-22.608-23.047-51.223-44.39-81.172-66.727C108.547 306.204 40 255.077 40 184.946c0-61.984 40.299-105.274 98-105.274 37.519 0 65.223 14.115 82.34 41.952 13.59 22.097 15.704 45.098 15.718 45.24.802 10.419 9.488 18.508 19.937 18.508 10.451 0 19.136-8.001 19.938-18.42.021-.23 2.135-23.231 15.725-45.328C308.777 93.787 336.481 79.672 374 79.672c57.701 0 98 43.29 98 105.274 0 58.038-47.252 103.036-98.315 143.017-8.696 6.809-10.227 19.38-3.417 28.077 6.807 8.696 19.379 10.227 28.077 3.417 24.29-19.019 55.077-44.72 77.723-74.901C500.246 252.333 512 219.75 512 184.946c0-42.477-13.946-79.052-40.33-105.772z"/>
    </svg>
    <svg viewBox="0 0 443.52 443.52" id="next" xmlns="http://www.w3.org/2000/svg">
        <path d="M336.226 209.591l-204.8-204.8c-6.78-6.548-17.584-6.36-24.132.42-6.388 6.614-6.388 17.099 0 23.712l192.734 192.734-192.734 192.734c-6.663 6.664-6.663 17.468 0 24.132 6.665 6.663 17.468 6.663 24.132 0l204.8-204.8c6.663-6.665 6.663-17.468 0-24.132z"/>
    </svg>
    <svg viewBox="0 0 443.52 443.52" id="prev" xmlns="http://www.w3.org/2000/svg">
        <path d="M143.492 221.863L336.226 29.129c6.663-6.664 6.663-17.468 0-24.132-6.665-6.662-17.468-6.662-24.132 0l-204.8 204.8c-6.662 6.664-6.662 17.468 0 24.132l204.8 204.8c6.78 6.548 17.584 6.36 24.132-.42 6.387-6.614 6.387-17.099 0-23.712L143.492 221.863z"/>
    </svg>
</svg>
